<svg width="20" height="16" viewBox="0 0 20 16" fill="none" xmlns="http://www.w3.org/2000/svg">
<path d="M10 0.621796C15.5228 0.621796 18.3333 3.95513 20 8.1218L19.8136 8.57292C18.1253 12.5265 15.322 15.6218 10 15.6218C4.47715 15.6218 1.66667 12.2885 0 8.1218C1.66667 3.95513 4.47715 0.621796 10 0.621796ZM10 2.28846C6.07857 2.28846 3.60889 4.1607 1.89531 7.92522L1.8075 8.1218L1.89531 8.31837C3.56904 11.9953 5.96411 13.867 9.72876 13.9521L10 13.9551C13.9214 13.9551 16.3911 12.0829 18.1047 8.31837L18.1917 8.1218L18.1047 7.92522C16.431 4.24825 14.0359 2.37657 10.2712 2.2915L10 2.28846ZM10 3.95513C12.3012 3.95513 14.1667 5.82061 14.1667 8.1218C14.1667 10.423 12.3012 12.2885 10 12.2885C7.69881 12.2885 5.83333 10.423 5.83333 8.1218C5.83333 5.82061 7.69881 3.95513 10 3.95513ZM10 5.6218C8.61929 5.6218 7.5 6.74108 7.5 8.1218C7.5 9.50251 8.61929 10.6218 10 10.6218C11.3807 10.6218 12.5 9.50251 12.5 8.1218C12.5 6.74108 11.3807 5.6218 10 5.6218Z" fill="#AFADB5"/>
</svg>
